<svg id="svg" version="1.1" width="400" height="140" viewBox="0 0 400 140" xmlns="http://www.w3.org/2000/svg" xmlns:xlink="http://www.w3.org/1999/xlink" ><g id="svgg"><path id="path0" d="M160.500 59.342 L 160.083 59.676 160.542 59.478 C 160.794 59.369,161.000 59.217,161.000 59.140 C 161.000 58.950,160.977 58.959,160.500 59.342 M179.667 69.583 C 179.551 69.723,179.533 69.833,179.626 69.833 C 179.718 69.833,179.886 69.721,180.000 69.583 C 180.116 69.444,180.134 69.333,180.041 69.333 C 179.949 69.333,179.781 69.446,179.667 69.583 M319.375 84.917 C 319.377 85.283,319.411 85.414,319.451 85.206 C 319.491 84.999,319.490 84.699,319.448 84.540 C 319.406 84.380,319.374 84.550,319.375 84.917 M290.539 85.000 C 290.539 85.321,290.573 85.452,290.615 85.292 C 290.657 85.131,290.657 84.869,290.615 84.708 C 290.573 84.548,290.539 84.679,290.539 85.000 M290.539 87.000 C 290.539 87.321,290.573 87.452,290.615 87.292 C 290.657 87.131,290.657 86.869,290.615 86.708 C 290.573 86.548,290.539 86.679,290.539 87.000 M319.372 87.000 C 319.372 87.321,319.406 87.452,319.448 87.292 C 319.490 87.131,319.490 86.869,319.448 86.708 C 319.406 86.548,319.372 86.679,319.372 87.000 M170.500 98.250 C 170.715 98.479,170.919 98.667,170.953 98.667 C 171.092 98.667,170.405 97.843,170.263 97.839 C 170.178 97.836,170.285 98.021,170.500 98.250 M270.531 111.750 C 270.730 111.979,270.919 112.167,270.951 112.167 C 270.982 112.167,270.885 111.979,270.735 111.750 C 270.585 111.521,270.396 111.333,270.315 111.333 C 270.235 111.333,270.332 111.521,270.531 111.750 M249.172 111.886 C 249.162 112.157,249.517 112.667,249.714 112.664 C 249.854 112.662,249.860 112.623,249.736 112.539 C 249.636 112.472,249.470 112.267,249.366 112.083 C 249.262 111.900,249.175 111.811,249.172 111.886 " stroke="none" fill="#000000" fill-rule="evenodd"></path><path id="path1" d="" stroke="none" fill="#ffffff" fill-rule="evenodd"></path><path id="path2" d="M92.167 68.000 L 92.167 117.833 101.167 117.833 L 110.167 117.833 110.167 68.000 L 110.167 18.167 101.167 18.167 L 92.167 18.167 92.167 68.000 M129.258 25.155 C 129.197 25.253,128.828 25.333,128.439 25.333 C 128.049 25.333,127.585 25.443,127.407 25.578 C 127.229 25.713,126.877 25.825,126.625 25.828 C 126.373 25.831,126.167 25.908,126.167 26.000 C 126.167 26.092,126.025 26.167,125.851 26.167 C 125.678 26.167,125.492 26.279,125.440 26.417 C 125.387 26.554,125.191 26.667,125.005 26.667 C 124.819 26.667,124.667 26.742,124.667 26.833 C 124.667 26.925,124.586 27.000,124.488 27.000 C 124.257 27.000,123.833 27.424,123.833 27.655 C 123.833 27.753,123.753 27.833,123.655 27.833 C 123.461 27.833,123.000 28.244,123.000 28.417 C 123.000 28.590,122.539 29.000,122.345 29.000 C 122.247 29.000,122.167 29.113,122.167 29.250 C 122.167 29.387,122.092 29.500,122.000 29.500 C 121.908 29.500,121.833 29.650,121.833 29.833 C 121.833 30.017,121.760 30.167,121.670 30.167 C 121.580 30.167,121.459 30.354,121.402 30.583 C 121.344 30.813,121.230 31.000,121.149 31.000 C 121.067 31.000,121.000 31.221,121.000 31.490 C 121.000 31.760,120.925 32.027,120.833 32.083 C 120.742 32.140,120.667 32.548,120.667 32.989 C 120.667 33.500,120.576 33.868,120.417 34.000 C 120.236 34.150,120.167 34.545,120.167 35.417 C 120.167 36.288,120.236 36.684,120.417 36.833 C 120.576 36.966,120.667 37.334,120.667 37.854 C 120.667 38.301,120.742 38.667,120.833 38.667 C 120.925 38.667,121.000 38.848,121.000 39.070 C 121.000 39.496,121.496 40.497,121.708 40.499 C 121.777 40.500,121.833 40.646,121.833 40.825 C 121.833 41.226,124.337 43.833,124.722 43.833 C 124.875 43.833,125.000 43.908,125.000 44.000 C 125.000 44.092,125.080 44.167,125.179 44.167 C 125.277 44.167,125.454 44.264,125.573 44.383 C 125.692 44.502,126.118 44.696,126.520 44.816 C 126.921 44.935,127.380 45.100,127.539 45.183 C 127.942 45.392,133.453 45.377,133.583 45.167 C 133.640 45.075,133.833 45.000,134.012 45.000 C 134.311 45.000,134.670 44.856,135.333 44.469 C 135.471 44.389,135.715 44.280,135.875 44.226 C 136.035 44.172,136.167 44.062,136.167 43.981 C 136.167 43.900,136.277 43.833,136.411 43.833 C 136.729 43.833,139.000 41.563,139.000 41.244 C 139.000 41.110,139.066 41.000,139.147 41.000 C 139.228 41.000,139.339 40.869,139.392 40.708 C 139.446 40.548,139.556 40.304,139.636 40.167 C 140.012 39.522,140.167 39.148,140.172 38.877 C 140.175 38.716,140.287 38.438,140.422 38.260 C 140.612 38.008,140.667 37.374,140.667 35.417 C 140.667 33.459,140.612 32.825,140.422 32.574 C 140.287 32.396,140.175 32.106,140.172 31.931 C 140.165 31.518,139.643 30.333,139.468 30.333 C 139.394 30.333,139.333 30.221,139.333 30.083 C 139.333 29.946,139.258 29.833,139.167 29.833 C 139.075 29.833,139.000 29.689,139.000 29.512 C 139.000 29.335,138.813 29.043,138.583 28.863 C 138.354 28.683,138.167 28.485,138.167 28.422 C 138.167 28.257,137.716 27.833,137.540 27.833 C 137.457 27.833,137.295 27.657,137.180 27.442 C 137.065 27.227,136.718 26.952,136.409 26.830 C 136.100 26.709,135.809 26.510,135.762 26.388 C 135.715 26.266,135.525 26.167,135.339 26.167 C 135.152 26.167,135.000 26.092,135.000 26.000 C 135.000 25.908,134.790 25.833,134.533 25.833 C 134.277 25.833,133.978 25.745,133.871 25.637 C 133.468 25.234,129.467 24.816,129.258 25.155 M213.375 71.375 L 213.417 117.750 222.375 117.793 L 231.333 117.836 231.333 108.924 L 231.333 100.011 231.792 99.520 C 233.088 98.129,233.333 97.821,233.333 97.588 C 233.333 97.448,233.412 97.333,233.508 97.333 C 233.735 97.333,235.333 95.735,235.333 95.508 C 235.333 95.412,235.427 95.333,235.542 95.332 C 235.656 95.331,235.926 95.108,236.141 94.836 C 236.534 94.338,237.000 94.433,237.000 95.011 C 237.000 95.121,237.180 95.379,237.401 95.583 C 237.621 95.787,237.915 96.171,238.053 96.435 C 238.192 96.700,238.461 97.027,238.653 97.162 C 238.844 97.297,239.000 97.510,239.000 97.635 C 239.000 97.761,239.262 98.170,239.583 98.545 C 239.904 98.920,240.167 99.315,240.167 99.423 C 240.167 99.531,240.354 99.761,240.583 99.933 C 240.813 100.105,241.000 100.373,241.000 100.527 C 241.000 100.682,241.188 100.957,241.417 101.137 C 241.646 101.317,241.833 101.548,241.833 101.649 C 241.833 101.750,241.908 101.833,242.000 101.833 C 242.092 101.833,242.167 101.983,242.167 102.167 C 242.167 102.352,242.278 102.500,242.417 102.500 C 242.554 102.500,242.667 102.612,242.667 102.750 C 242.667 102.888,242.742 103.000,242.833 103.000 C 242.925 103.000,243.000 103.099,243.000 103.220 C 243.000 103.341,243.262 103.734,243.583 104.095 C 243.904 104.455,244.166 104.846,244.167 104.964 C 244.167 105.081,244.279 105.220,244.417 105.273 C 244.554 105.326,244.667 105.473,244.667 105.601 C 244.667 105.729,244.737 105.833,244.822 105.833 C 244.908 105.833,245.022 105.975,245.077 106.147 C 245.132 106.320,245.400 106.694,245.672 106.979 C 245.944 107.264,246.167 107.593,246.167 107.711 C 246.167 107.829,246.298 108.043,246.458 108.185 C 246.900 108.578,247.500 109.383,247.500 109.583 C 247.500 109.680,247.650 109.868,247.833 110.000 C 248.017 110.132,248.167 110.333,248.167 110.446 C 248.167 110.559,248.354 110.839,248.583 111.068 C 248.813 111.297,249.000 111.529,249.000 111.583 C 249.000 111.677,249.176 111.910,249.625 112.411 C 249.740 112.538,249.833 112.689,249.833 112.745 C 249.833 112.843,250.006 113.072,250.458 113.577 C 250.573 113.705,250.667 113.890,250.667 113.988 C 250.667 114.086,250.730 114.167,250.807 114.167 C 250.884 114.167,251.089 114.429,251.262 114.750 C 251.434 115.071,251.634 115.333,251.705 115.333 C 251.775 115.333,251.833 115.412,251.833 115.507 C 251.833 115.603,252.021 115.883,252.250 116.131 C 252.479 116.378,252.667 116.638,252.667 116.708 C 252.667 116.779,252.881 117.061,253.143 117.335 L 253.619 117.833 264.042 117.833 C 275.501 117.833,275.237 117.858,274.253 116.874 C 274.022 116.643,273.832 116.371,273.830 116.269 C 273.829 116.167,273.641 115.907,273.414 115.691 C 273.186 115.475,273.000 115.209,273.000 115.101 C 273.000 114.992,272.737 114.624,272.417 114.284 C 272.096 113.944,271.833 113.564,271.833 113.440 C 271.833 113.315,271.646 113.073,271.417 112.900 C 271.188 112.728,271.000 112.511,271.000 112.417 C 271.000 112.323,270.813 112.044,270.583 111.797 C 270.354 111.550,270.167 111.270,270.167 111.174 C 270.167 111.078,270.092 111.000,270.000 111.000 C 269.908 111.000,269.833 110.905,269.833 110.790 C 269.833 110.674,269.646 110.378,269.417 110.131 C 269.188 109.883,269.000 109.635,269.000 109.579 C 269.000 109.522,268.906 109.372,268.792 109.244 C 268.339 108.739,268.167 108.510,268.167 108.412 C 268.167 108.356,268.073 108.205,267.958 108.077 C 267.481 107.545,267.333 107.340,267.333 107.210 C 267.333 107.135,267.183 106.965,267.000 106.833 C 266.817 106.701,266.667 106.513,266.667 106.416 C 266.667 106.217,266.067 105.412,265.625 105.019 C 265.465 104.876,265.333 104.653,265.333 104.524 C 265.333 104.395,265.197 104.168,265.030 104.020 C 264.863 103.871,264.584 103.506,264.411 103.208 C 264.237 102.910,264.036 102.667,263.964 102.667 C 263.892 102.667,263.833 102.554,263.833 102.417 C 263.833 102.279,263.721 102.167,263.583 102.167 C 263.444 102.167,263.333 102.019,263.333 101.833 C 263.333 101.650,263.258 101.500,263.167 101.500 C 263.075 101.500,263.000 101.422,263.000 101.326 C 263.000 101.230,262.813 100.950,262.583 100.703 C 262.354 100.456,262.167 100.186,262.167 100.104 C 262.167 100.022,261.979 99.781,261.750 99.569 C 261.521 99.356,261.333 99.105,261.333 99.010 C 261.333 98.820,260.914 98.267,260.458 97.856 C 260.298 97.711,260.167 97.491,260.167 97.368 C 260.167 97.099,259.763 96.667,259.512 96.667 C 259.414 96.667,259.333 96.527,259.333 96.357 C 259.333 96.186,259.071 95.768,258.750 95.428 C 258.429 95.088,258.164 94.721,258.161 94.613 C 258.154 94.331,257.747 93.833,257.523 93.833 C 257.419 93.833,257.333 93.721,257.333 93.583 C 257.333 93.446,257.258 93.333,257.167 93.333 C 257.075 93.333,257.000 93.211,257.000 93.061 C 257.000 92.911,256.813 92.614,256.583 92.402 C 256.354 92.190,256.167 91.927,256.167 91.819 C 256.167 91.711,255.904 91.375,255.583 91.073 C 255.262 90.770,255.000 90.416,255.000 90.287 C 255.000 90.158,254.842 89.909,254.649 89.734 C 254.456 89.560,254.162 89.154,253.997 88.833 C 253.831 88.513,253.539 88.140,253.348 88.005 C 253.157 87.870,253.000 87.632,253.000 87.475 C 253.000 87.319,252.813 87.043,252.583 86.863 C 252.354 86.683,252.167 86.452,252.167 86.351 C 252.167 86.250,252.092 86.167,252.000 86.167 C 251.908 86.167,251.833 86.052,251.833 85.911 C 251.833 85.771,251.721 85.613,251.583 85.560 C 251.446 85.508,251.333 85.360,251.333 85.232 C 251.333 85.104,251.258 85.000,251.167 85.000 C 251.075 85.000,250.999 84.906,250.997 84.792 C 250.995 84.677,250.733 84.284,250.413 83.918 C 250.094 83.553,249.833 83.157,249.833 83.038 C 249.833 82.920,249.721 82.780,249.583 82.727 C 249.446 82.674,249.333 82.561,249.333 82.475 C 249.333 82.390,249.183 82.158,249.000 81.962 C 248.817 81.765,248.667 81.485,248.667 81.339 C 248.667 81.193,248.817 80.965,249.000 80.833 C 249.183 80.701,249.333 80.497,249.333 80.380 C 249.333 80.263,249.414 80.167,249.512 80.167 C 249.729 80.167,250.167 79.748,250.167 79.540 C 250.167 79.457,250.354 79.289,250.583 79.167 C 250.813 79.044,251.000 78.900,251.000 78.847 C 251.000 78.794,251.638 78.077,252.417 77.255 C 253.196 76.432,253.833 75.709,253.833 75.648 C 253.833 75.587,254.836 74.517,256.060 73.270 C 257.285 72.024,258.467 70.741,258.685 70.420 C 258.904 70.099,259.140 69.835,259.208 69.834 C 259.277 69.834,259.333 69.721,259.333 69.583 C 259.333 69.446,259.412 69.333,259.508 69.333 C 259.735 69.333,261.333 67.735,261.333 67.508 C 261.333 67.412,261.414 67.333,261.512 67.333 C 261.698 67.333,262.167 66.926,262.167 66.764 C 262.167 66.713,262.523 66.300,262.958 65.846 C 263.985 64.776,264.167 64.551,264.167 64.340 C 264.167 64.245,264.247 64.167,264.345 64.167 C 264.539 64.167,265.000 63.756,265.000 63.583 C 265.000 63.410,265.461 63.000,265.655 63.000 C 265.753 63.000,265.833 62.937,265.833 62.860 C 265.833 62.784,266.415 62.126,267.125 61.399 C 267.835 60.672,268.632 59.790,268.896 59.439 C 269.159 59.088,270.078 58.096,270.937 57.233 C 271.797 56.371,272.500 55.591,272.500 55.500 C 272.500 55.408,272.580 55.333,272.679 55.333 C 272.903 55.333,273.333 54.912,273.333 54.692 C 273.333 54.602,273.422 54.498,273.530 54.462 C 273.640 54.426,273.679 54.272,273.619 54.115 C 273.519 53.854,272.647 53.833,261.910 53.833 C 249.922 53.833,249.833 53.838,249.833 54.460 C 249.833 54.543,249.646 54.711,249.417 54.833 C 249.188 54.956,249.000 55.113,249.000 55.183 C 249.000 55.253,248.550 55.783,248.000 56.361 C 247.450 56.939,247.000 57.474,247.000 57.551 C 247.000 57.750,246.557 58.167,246.345 58.167 C 246.247 58.167,246.167 58.236,246.167 58.320 C 246.167 58.404,245.548 59.101,244.792 59.868 C 244.035 60.636,243.154 61.593,242.833 61.995 C 242.512 62.397,241.894 63.084,241.458 63.522 C 241.023 63.959,240.667 64.396,240.667 64.492 C 240.667 64.588,240.586 64.667,240.488 64.667 C 240.294 64.667,239.833 65.077,239.833 65.250 C 239.833 65.423,239.373 65.833,239.179 65.833 C 239.080 65.833,238.999 65.890,238.998 65.958 C 238.995 66.109,238.092 67.227,237.458 67.862 C 237.206 68.115,237.000 68.367,237.000 68.423 C 237.000 68.591,236.536 69.000,236.345 69.000 C 236.247 69.000,236.167 69.061,236.167 69.135 C 236.167 69.209,235.646 69.808,235.010 70.466 C 234.374 71.124,233.643 71.943,233.385 72.287 C 233.127 72.631,232.579 73.243,232.167 73.648 L 231.417 74.385 231.374 49.692 L 231.332 25.000 222.332 25.000 L 213.333 25.000 213.375 71.375 M319.833 41.833 C 319.833 52.335,319.774 58.667,319.675 58.667 C 319.588 58.667,319.315 58.479,319.068 58.250 C 318.820 58.021,318.546 57.833,318.458 57.833 C 318.370 57.833,318.150 57.646,317.970 57.417 C 317.790 57.188,317.498 57.000,317.321 57.000 C 317.145 57.000,317.000 56.925,317.000 56.833 C 317.000 56.742,316.887 56.667,316.750 56.667 C 316.612 56.667,316.500 56.610,316.499 56.542 C 316.498 56.374,315.534 55.833,315.236 55.833 C 315.106 55.833,315.000 55.760,315.000 55.670 C 315.000 55.580,314.813 55.459,314.583 55.402 C 314.354 55.344,314.167 55.230,314.167 55.149 C 314.167 55.067,313.979 55.000,313.750 55.000 C 313.521 55.000,313.333 54.925,313.333 54.833 C 313.333 54.742,313.071 54.667,312.750 54.667 C 312.343 54.667,312.167 54.591,312.167 54.417 C 312.167 54.251,312.001 54.167,311.677 54.167 C 311.407 54.167,311.140 54.092,311.083 54.000 C 311.027 53.908,310.741 53.831,310.448 53.828 C 310.156 53.825,309.771 53.713,309.593 53.578 C 309.415 53.443,308.951 53.333,308.561 53.333 C 308.172 53.333,307.807 53.258,307.750 53.167 C 307.621 52.957,297.892 52.937,297.762 53.146 C 297.713 53.227,297.206 53.327,296.637 53.368 C 296.056 53.410,295.574 53.528,295.537 53.638 C 295.502 53.745,295.183 53.833,294.829 53.833 C 294.476 53.833,294.140 53.908,294.083 54.000 C 294.027 54.092,293.720 54.167,293.402 54.167 C 293.041 54.167,292.787 54.261,292.727 54.417 C 292.673 54.558,292.425 54.667,292.159 54.667 C 291.899 54.667,291.640 54.742,291.583 54.833 C 291.527 54.925,291.297 55.000,291.073 55.000 C 290.850 55.000,290.667 55.075,290.667 55.167 C 290.667 55.258,290.514 55.333,290.328 55.333 C 290.142 55.333,289.946 55.446,289.894 55.583 C 289.841 55.721,289.618 55.833,289.399 55.833 C 289.179 55.833,289.000 55.908,289.000 56.000 C 289.000 56.092,288.848 56.167,288.661 56.167 C 288.475 56.167,288.280 56.279,288.227 56.417 C 288.174 56.554,287.989 56.667,287.816 56.667 C 287.642 56.667,287.500 56.734,287.500 56.815 C 287.500 56.897,287.311 57.011,287.079 57.070 C 286.848 57.128,286.521 57.312,286.354 57.479 C 286.187 57.646,285.814 57.888,285.525 58.016 C 285.236 58.143,285.000 58.310,285.000 58.386 C 285.000 58.608,284.544 59.000,284.285 59.000 C 284.154 59.000,283.906 59.188,283.734 59.417 C 283.562 59.646,283.358 59.833,283.282 59.833 C 283.083 59.833,282.667 60.277,282.667 60.488 C 282.667 60.586,282.588 60.667,282.492 60.667 C 282.265 60.667,280.667 62.265,280.667 62.492 C 280.667 62.588,280.563 62.667,280.436 62.667 C 280.309 62.667,280.088 62.910,279.946 63.208 C 279.804 63.506,279.533 63.860,279.344 63.995 C 279.155 64.130,279.000 64.336,279.000 64.453 C 279.000 64.571,278.925 64.667,278.833 64.667 C 278.742 64.667,278.667 64.761,278.667 64.877 C 278.667 64.992,278.479 65.289,278.250 65.536 C 278.021 65.783,277.833 66.139,277.833 66.326 C 277.833 66.513,277.748 66.667,277.643 66.667 C 277.387 66.667,277.012 67.181,277.005 67.542 C 277.002 67.702,276.925 67.833,276.833 67.833 C 276.742 67.833,276.667 68.021,276.667 68.250 C 276.667 68.509,276.572 68.667,276.417 68.667 C 276.279 68.667,276.167 68.812,276.167 68.990 C 276.167 69.168,276.092 69.360,276.000 69.417 C 275.908 69.473,275.833 69.665,275.833 69.843 C 275.833 70.021,275.773 70.167,275.699 70.167 C 275.512 70.167,275.000 71.367,275.000 71.806 C 275.000 72.004,274.925 72.167,274.833 72.167 C 274.742 72.167,274.667 72.432,274.667 72.755 C 274.667 73.125,274.574 73.380,274.417 73.440 C 274.262 73.499,274.167 73.752,274.167 74.101 C 274.167 74.412,274.092 74.667,274.000 74.667 C 273.908 74.667,273.831 74.910,273.828 75.208 C 273.825 75.506,273.713 75.896,273.578 76.074 C 273.443 76.251,273.333 76.720,273.333 77.115 C 273.333 77.510,273.258 77.833,273.167 77.833 C 273.072 77.833,273.000 78.330,273.000 78.990 C 273.000 79.626,272.925 80.193,272.833 80.250 C 272.728 80.315,272.667 82.415,272.667 86.000 C 272.667 89.585,272.728 91.685,272.833 91.750 C 272.925 91.807,273.000 92.332,273.000 92.917 C 273.000 93.502,273.075 94.027,273.167 94.083 C 273.258 94.140,273.333 94.477,273.333 94.831 C 273.333 95.186,273.446 95.589,273.583 95.726 C 273.724 95.867,273.833 96.274,273.833 96.655 C 273.833 97.028,273.908 97.333,274.000 97.333 C 274.092 97.333,274.167 97.588,274.167 97.899 C 274.167 98.248,274.262 98.501,274.417 98.560 C 274.554 98.613,274.667 98.847,274.667 99.080 C 274.667 99.314,274.733 99.635,274.814 99.794 C 274.895 99.953,275.052 100.308,275.163 100.583 C 275.273 100.858,275.470 101.296,275.599 101.555 C 275.728 101.815,275.833 102.133,275.833 102.264 C 275.833 102.394,275.908 102.500,276.000 102.500 C 276.092 102.500,276.167 102.652,276.167 102.839 C 276.167 103.025,276.279 103.220,276.417 103.273 C 276.554 103.326,276.667 103.548,276.667 103.768 C 276.667 103.987,276.742 104.167,276.833 104.167 C 276.925 104.167,277.000 104.268,277.000 104.392 C 277.000 104.516,277.188 104.820,277.417 105.068 C 277.646 105.315,277.833 105.636,277.833 105.781 C 277.833 105.926,278.021 106.219,278.250 106.431 C 278.479 106.644,278.667 106.907,278.667 107.017 C 278.667 107.127,278.929 107.471,279.250 107.783 C 279.571 108.094,279.833 108.410,279.833 108.484 C 279.833 108.558,280.021 108.820,280.250 109.068 C 280.479 109.315,280.667 109.547,280.667 109.584 C 280.667 109.726,282.358 111.333,282.508 111.333 C 282.595 111.333,282.667 111.414,282.667 111.512 C 282.667 111.706,283.077 112.167,283.250 112.167 C 283.309 112.167,283.462 112.260,283.589 112.375 C 284.120 112.851,284.326 113.000,284.453 113.000 C 284.527 113.000,284.728 113.188,284.900 113.417 C 285.073 113.646,285.297 113.833,285.398 113.834 C 285.500 113.834,285.801 114.021,286.068 114.250 C 286.334 114.479,286.653 114.667,286.776 114.667 C 286.899 114.667,287.000 114.742,287.000 114.833 C 287.000 114.925,287.112 115.000,287.250 115.000 C 287.387 115.000,287.500 115.075,287.500 115.167 C 287.500 115.258,287.642 115.333,287.816 115.333 C 287.989 115.333,288.174 115.446,288.227 115.583 C 288.280 115.721,288.475 115.833,288.661 115.833 C 288.848 115.833,289.000 115.908,289.000 116.000 C 289.000 116.092,289.188 116.167,289.417 116.167 C 289.646 116.167,289.833 116.240,289.833 116.330 C 289.833 116.420,290.021 116.541,290.250 116.598 C 290.479 116.656,290.667 116.770,290.667 116.851 C 290.667 116.933,290.887 117.000,291.157 117.000 C 291.426 117.000,291.693 117.075,291.750 117.167 C 291.807 117.258,292.004 117.333,292.188 117.333 C 292.373 117.333,292.636 117.446,292.774 117.583 C 292.911 117.721,293.281 117.833,293.595 117.833 C 293.910 117.833,294.167 117.908,294.167 118.000 C 294.167 118.092,294.495 118.167,294.896 118.167 C 295.341 118.167,295.707 118.264,295.833 118.417 C 295.965 118.576,296.333 118.667,296.844 118.667 C 297.286 118.667,297.693 118.742,297.750 118.833 C 297.890 119.060,307.610 119.060,307.750 118.833 C 307.807 118.742,308.172 118.667,308.561 118.667 C 308.951 118.667,309.415 118.557,309.593 118.422 C 309.771 118.287,310.160 118.175,310.458 118.172 C 310.756 118.169,311.000 118.092,311.000 118.000 C 311.000 117.908,311.262 117.833,311.583 117.833 C 311.991 117.833,312.167 117.758,312.167 117.583 C 312.167 117.409,312.343 117.333,312.750 117.333 C 313.071 117.333,313.333 117.258,313.333 117.167 C 313.333 117.075,313.521 117.000,313.750 117.000 C 313.979 117.000,314.167 116.933,314.167 116.851 C 314.167 116.770,314.354 116.656,314.583 116.598 C 314.813 116.541,315.000 116.420,315.000 116.330 C 315.000 116.240,315.106 116.167,315.236 116.167 C 315.534 116.167,316.498 115.626,316.499 115.458 C 316.500 115.390,316.612 115.333,316.750 115.333 C 316.887 115.333,317.000 115.258,317.000 115.167 C 317.000 115.075,317.145 115.000,317.321 115.000 C 317.498 115.000,317.790 114.813,317.970 114.583 C 318.150 114.354,318.370 114.167,318.458 114.167 C 318.546 114.167,318.820 113.979,319.068 113.750 C 319.789 113.082,319.833 113.188,319.833 115.583 L 319.833 117.833 328.833 117.833 L 337.833 117.833 337.833 71.417 L 337.833 25.000 328.833 25.000 L 319.833 25.000 319.833 41.833 M175.262 53.146 C 175.213 53.227,174.706 53.327,174.137 53.368 C 173.556 53.410,173.074 53.528,173.037 53.638 C 173.001 53.748,172.651 53.833,172.236 53.833 C 171.831 53.833,171.500 53.908,171.500 54.000 C 171.500 54.092,171.235 54.167,170.911 54.167 C 170.542 54.167,170.287 54.260,170.227 54.417 C 170.168 54.571,169.914 54.667,169.566 54.667 C 169.254 54.667,169.000 54.742,169.000 54.833 C 169.000 54.925,168.838 55.000,168.639 55.000 C 168.201 55.000,167.000 55.512,167.000 55.699 C 167.000 55.773,166.813 55.833,166.583 55.833 C 166.354 55.833,166.167 55.908,166.167 56.000 C 166.167 56.092,166.014 56.167,165.828 56.167 C 165.642 56.167,165.446 56.279,165.394 56.417 C 165.341 56.554,165.156 56.667,164.982 56.667 C 164.809 56.667,164.667 56.742,164.667 56.833 C 164.667 56.925,164.479 57.000,164.250 57.000 C 164.021 57.000,163.833 57.058,163.833 57.129 C 163.833 57.200,163.571 57.399,163.250 57.572 C 162.929 57.744,162.667 57.949,162.667 58.026 C 162.667 58.103,162.533 58.167,162.370 58.167 C 162.207 58.167,161.956 58.298,161.811 58.458 C 161.488 58.816,161.069 59.152,160.429 59.565 C 159.355 60.258,155.000 64.614,155.000 64.994 C 155.000 65.089,154.925 65.167,154.833 65.167 C 154.742 65.167,154.667 65.317,154.667 65.500 C 154.667 65.683,154.581 65.833,154.477 65.833 C 154.246 65.833,153.846 66.335,153.839 66.633 C 153.836 66.752,153.646 67.023,153.417 67.235 C 153.188 67.448,153.000 67.744,153.000 67.894 C 153.000 68.044,152.925 68.167,152.833 68.167 C 152.742 68.167,152.667 68.279,152.667 68.417 C 152.667 68.554,152.593 68.667,152.503 68.667 C 152.413 68.667,152.293 68.854,152.235 69.083 C 152.178 69.313,152.064 69.500,151.982 69.500 C 151.900 69.500,151.833 69.614,151.833 69.753 C 151.833 69.893,151.646 70.304,151.417 70.667 C 151.188 71.030,151.000 71.478,151.000 71.663 C 151.000 71.849,150.925 72.000,150.833 72.000 C 150.742 72.000,150.667 72.217,150.667 72.482 C 150.667 72.757,150.559 73.006,150.417 73.060 C 150.279 73.113,150.167 73.342,150.167 73.568 C 150.167 73.795,150.092 74.027,150.000 74.083 C 149.908 74.140,149.833 74.375,149.833 74.605 C 149.833 74.835,149.721 75.136,149.583 75.274 C 149.446 75.411,149.333 75.781,149.333 76.095 C 149.333 76.410,149.258 76.667,149.167 76.667 C 149.075 76.667,149.000 77.000,149.000 77.407 C 149.000 77.814,148.925 78.193,148.833 78.250 C 148.742 78.307,148.667 78.789,148.667 79.323 C 148.667 79.981,148.586 80.359,148.417 80.500 C 148.204 80.676,148.167 81.492,148.167 85.942 C 148.167 90.442,148.202 91.191,148.417 91.273 C 148.605 91.345,148.667 91.650,148.667 92.518 C 148.667 93.173,148.738 93.667,148.833 93.667 C 148.925 93.667,149.000 94.000,149.000 94.407 C 149.000 94.814,149.075 95.193,149.167 95.250 C 149.258 95.307,149.333 95.564,149.333 95.823 C 149.333 96.081,149.446 96.386,149.583 96.500 C 149.721 96.614,149.833 96.961,149.833 97.270 C 149.833 97.580,149.908 97.833,150.000 97.833 C 150.092 97.833,150.167 98.061,150.167 98.339 C 150.167 98.634,150.271 98.884,150.417 98.940 C 150.554 98.992,150.667 99.215,150.667 99.434 C 150.667 99.654,150.742 99.833,150.833 99.833 C 150.925 99.833,151.000 99.958,151.000 100.111 C 151.000 100.453,151.524 101.667,151.672 101.667 C 151.731 101.667,151.879 101.967,152.000 102.333 C 152.121 102.700,152.321 103.000,152.443 103.000 C 152.570 103.000,152.667 103.180,152.667 103.417 C 152.667 103.646,152.742 103.833,152.833 103.833 C 152.925 103.833,153.000 103.935,153.000 104.059 C 153.000 104.183,153.188 104.487,153.417 104.734 C 153.646 104.982,153.833 105.292,153.833 105.425 C 153.833 105.558,153.908 105.667,154.000 105.667 C 154.092 105.667,154.167 105.779,154.167 105.917 C 154.167 106.054,154.279 106.167,154.417 106.167 C 154.554 106.167,154.667 106.279,154.667 106.417 C 154.667 106.554,154.742 106.667,154.833 106.667 C 154.925 106.667,155.000 106.774,155.000 106.906 C 155.000 107.137,159.855 112.167,160.079 112.167 C 160.140 112.167,160.295 112.260,160.423 112.375 C 160.923 112.823,161.157 113.000,161.250 113.000 C 161.304 113.000,161.550 113.188,161.797 113.417 C 162.044 113.646,162.341 113.833,162.457 113.833 C 162.572 113.833,162.667 113.908,162.667 114.000 C 162.667 114.092,162.747 114.167,162.844 114.167 C 162.942 114.167,163.268 114.354,163.569 114.583 C 163.869 114.813,164.239 115.000,164.391 115.000 C 164.542 115.000,164.667 115.075,164.667 115.167 C 164.667 115.258,164.819 115.333,165.005 115.333 C 165.191 115.333,165.387 115.446,165.440 115.583 C 165.492 115.721,165.678 115.833,165.851 115.833 C 166.025 115.833,166.167 115.908,166.167 116.000 C 166.167 116.092,166.354 116.167,166.583 116.167 C 166.813 116.167,167.000 116.231,167.000 116.311 C 167.000 116.479,168.296 117.000,168.714 117.000 C 168.871 117.000,169.000 117.075,169.000 117.167 C 169.000 117.258,169.254 117.333,169.566 117.333 C 169.914 117.333,170.168 117.429,170.227 117.583 C 170.287 117.740,170.542 117.833,170.911 117.833 C 171.235 117.833,171.500 117.908,171.500 118.000 C 171.500 118.092,171.823 118.167,172.217 118.167 C 172.611 118.167,173.024 118.258,173.136 118.369 C 173.609 118.842,185.290 119.277,185.729 118.838 C 185.823 118.744,186.283 118.667,186.751 118.667 C 187.242 118.667,187.740 118.563,187.926 118.422 C 188.104 118.287,188.527 118.175,188.865 118.172 C 189.204 118.169,189.527 118.092,189.583 118.000 C 189.640 117.908,189.947 117.833,190.265 117.833 C 190.626 117.833,190.880 117.739,190.940 117.583 C 190.999 117.429,191.252 117.333,191.601 117.333 C 191.912 117.333,192.167 117.258,192.167 117.167 C 192.167 117.075,192.354 117.000,192.583 117.000 C 192.813 117.000,193.000 116.925,193.000 116.833 C 193.000 116.742,193.120 116.667,193.266 116.667 C 193.412 116.667,193.731 116.563,193.974 116.436 C 194.218 116.309,194.698 116.067,195.042 115.898 C 195.385 115.729,195.667 115.533,195.667 115.462 C 195.667 115.391,195.780 115.333,195.919 115.333 C 196.163 115.333,196.829 115.017,197.000 114.821 C 197.046 114.768,197.327 114.583,197.625 114.410 C 197.923 114.237,198.167 114.036,198.167 113.964 C 198.167 113.892,198.306 113.833,198.477 113.833 C 198.647 113.833,198.927 113.646,199.100 113.417 C 199.272 113.188,199.475 113.000,199.551 113.000 C 199.628 113.000,199.795 112.906,199.923 112.792 C 200.428 112.339,200.657 112.167,200.755 112.167 C 200.924 112.167,201.333 111.703,201.333 111.512 C 201.333 111.414,201.412 111.333,201.508 111.333 C 201.604 111.333,202.054 110.962,202.508 110.508 C 202.962 110.054,203.333 109.604,203.333 109.508 C 203.333 109.412,203.414 109.333,203.512 109.333 C 203.704 109.333,204.167 108.924,204.167 108.754 C 204.167 108.698,204.354 108.464,204.583 108.235 C 204.813 108.006,205.000 107.748,205.000 107.662 C 205.000 107.576,205.262 107.236,205.583 106.905 C 205.904 106.575,206.167 106.199,206.167 106.069 C 206.167 105.939,206.230 105.833,206.307 105.833 C 206.383 105.833,206.590 105.534,206.765 105.169 C 206.940 104.803,207.140 104.503,207.208 104.502 C 207.277 104.501,207.333 104.368,207.333 104.207 C 207.333 103.904,206.018 103.000,205.577 103.000 C 205.443 103.000,205.333 102.925,205.333 102.833 C 205.333 102.742,205.146 102.667,204.917 102.667 C 204.688 102.667,204.500 102.606,204.500 102.532 C 204.500 102.404,203.356 101.833,203.099 101.833 C 203.031 101.833,202.864 101.721,202.726 101.583 C 202.589 101.446,202.332 101.333,202.155 101.333 C 201.978 101.333,201.833 101.258,201.833 101.167 C 201.833 101.075,201.688 101.000,201.510 101.000 C 201.332 101.000,201.140 100.925,201.083 100.833 C 201.027 100.742,200.797 100.667,200.573 100.667 C 200.323 100.667,200.167 100.571,200.167 100.417 C 200.167 100.261,200.009 100.167,199.750 100.167 C 199.521 100.167,199.333 100.092,199.333 100.000 C 199.333 99.908,199.191 99.833,199.018 99.833 C 198.844 99.833,198.659 99.721,198.606 99.583 C 198.554 99.446,198.358 99.333,198.172 99.333 C 197.986 99.333,197.833 99.258,197.833 99.167 C 197.833 99.075,197.646 99.000,197.417 99.000 C 197.188 99.000,197.000 98.925,197.000 98.833 C 197.000 98.742,196.813 98.667,196.583 98.667 C 196.324 98.667,196.167 98.572,196.167 98.417 C 196.167 98.261,196.009 98.167,195.750 98.167 C 195.521 98.167,195.333 98.092,195.333 98.000 C 195.333 97.908,195.188 97.833,195.010 97.833 C 194.832 97.833,194.643 97.763,194.590 97.677 C 194.463 97.472,193.511 97.000,193.224 97.000 C 193.101 97.000,193.000 96.925,193.000 96.833 C 193.000 96.382,191.901 96.674,191.589 97.208 C 191.416 97.506,191.137 97.871,190.970 98.020 C 190.803 98.168,190.667 98.374,190.667 98.478 C 190.667 98.582,190.588 98.667,190.492 98.667 C 190.397 98.667,190.131 98.854,189.902 99.083 C 189.672 99.313,189.427 99.500,189.357 99.500 C 189.287 99.500,189.080 99.631,188.897 99.792 C 188.446 100.188,187.975 100.490,187.625 100.608 C 187.465 100.661,187.333 100.772,187.333 100.853 C 187.333 100.934,187.182 101.000,186.998 101.000 C 186.661 101.000,186.558 101.039,185.528 101.555 C 185.223 101.708,184.721 101.833,184.413 101.833 C 184.105 101.833,183.807 101.908,183.750 102.000 C 183.688 102.101,182.474 102.167,180.667 102.167 C 178.860 102.167,177.646 102.101,177.583 102.000 C 177.527 101.908,177.185 101.833,176.823 101.833 C 176.462 101.833,176.167 101.762,176.167 101.674 C 176.167 101.587,175.903 101.466,175.581 101.405 C 175.260 101.345,174.955 101.229,174.905 101.148 C 174.855 101.066,174.668 101.000,174.490 101.000 C 174.312 101.000,174.167 100.925,174.167 100.833 C 174.167 100.742,173.979 100.667,173.750 100.667 C 173.491 100.667,173.333 100.572,173.333 100.417 C 173.333 100.279,173.198 100.167,173.033 100.167 C 172.453 100.167,169.000 96.830,169.000 96.269 C 169.000 96.148,168.813 95.846,168.583 95.599 C 168.354 95.352,168.167 95.041,168.167 94.908 C 168.167 94.775,168.092 94.667,168.000 94.667 C 167.908 94.667,167.833 94.487,167.833 94.268 C 167.833 94.048,167.721 93.826,167.583 93.773 C 167.437 93.717,167.333 93.467,167.333 93.172 C 167.333 92.894,167.258 92.667,167.167 92.667 C 167.075 92.667,167.000 92.409,167.000 92.093 C 167.000 91.778,166.925 91.473,166.833 91.417 C 166.742 91.360,166.667 90.986,166.667 90.585 C 166.667 90.160,166.563 89.753,166.417 89.607 C 166.094 89.284,166.039 82.570,166.359 82.464 C 166.464 82.429,166.586 81.972,166.629 81.450 C 166.672 80.927,166.774 80.500,166.854 80.500 C 166.934 80.500,167.000 80.237,167.000 79.917 C 167.000 79.596,167.075 79.333,167.167 79.333 C 167.258 79.333,167.333 79.071,167.333 78.750 C 167.333 78.343,167.409 78.167,167.583 78.167 C 167.739 78.167,167.833 78.009,167.833 77.750 C 167.833 77.521,167.908 77.333,168.000 77.333 C 168.092 77.333,168.167 77.193,168.167 77.020 C 168.167 76.848,168.279 76.614,168.417 76.500 C 168.554 76.386,168.667 76.189,168.667 76.063 C 168.667 75.937,168.742 75.833,168.833 75.833 C 168.925 75.833,169.000 75.721,169.000 75.583 C 169.000 75.446,169.075 75.333,169.167 75.333 C 169.258 75.333,169.333 75.221,169.333 75.083 C 169.333 74.946,169.411 74.833,169.505 74.833 C 169.600 74.833,169.726 74.705,169.786 74.549 C 169.846 74.393,170.291 73.887,170.775 73.424 C 171.927 72.322,172.119 72.167,172.326 72.167 C 172.422 72.167,172.500 72.092,172.500 72.000 C 172.500 71.908,172.604 71.833,172.732 71.833 C 172.860 71.833,173.008 71.721,173.060 71.583 C 173.113 71.446,173.309 71.333,173.495 71.333 C 173.681 71.333,173.833 71.258,173.833 71.167 C 173.833 71.075,173.947 71.000,174.086 71.000 C 174.340 71.000,174.460 70.952,175.472 70.445 C 175.777 70.292,176.246 70.167,176.514 70.167 C 176.781 70.167,177.000 70.092,177.000 70.000 C 177.000 69.904,177.521 69.833,178.230 69.833 C 179.119 69.833,179.517 69.764,179.667 69.583 C 179.798 69.425,180.166 69.333,180.669 69.333 C 181.222 69.333,181.494 69.409,181.560 69.583 C 181.634 69.775,181.948 69.833,182.902 69.833 C 183.587 69.833,184.193 69.908,184.250 70.000 C 184.307 70.092,184.579 70.167,184.855 70.167 C 185.131 70.167,185.470 70.279,185.607 70.417 C 185.745 70.554,186.039 70.667,186.262 70.667 C 186.485 70.667,186.667 70.742,186.667 70.833 C 186.667 70.925,186.812 71.000,186.990 71.000 C 187.168 71.000,187.360 71.075,187.417 71.167 C 187.473 71.258,187.665 71.333,187.843 71.333 C 188.021 71.333,188.167 71.446,188.167 71.583 C 188.167 71.721,188.279 71.833,188.417 71.833 C 188.554 71.833,188.667 71.908,188.667 72.000 C 188.667 72.092,188.780 72.167,188.920 72.167 C 189.059 72.167,189.427 72.429,189.739 72.750 C 190.051 73.071,190.387 73.333,190.486 73.333 C 190.585 73.333,190.667 73.411,190.667 73.507 C 190.667 73.602,190.960 73.976,191.319 74.339 C 191.678 74.701,192.003 75.092,192.042 75.207 C 192.097 75.371,192.200 75.374,192.514 75.221 C 192.736 75.114,193.273 74.897,193.708 74.740 C 194.144 74.583,194.500 74.390,194.500 74.311 C 194.500 74.231,194.646 74.167,194.823 74.167 C 195.001 74.167,195.193 74.092,195.250 74.000 C 195.307 73.908,195.501 73.833,195.682 73.833 C 195.863 73.833,196.054 73.721,196.106 73.583 C 196.159 73.446,196.382 73.333,196.601 73.333 C 196.821 73.333,197.000 73.258,197.000 73.167 C 197.000 73.075,197.106 73.000,197.236 73.000 C 197.534 73.000,198.498 72.459,198.499 72.292 C 198.500 72.223,198.688 72.167,198.917 72.167 C 199.146 72.167,199.333 72.092,199.333 72.000 C 199.333 71.908,199.521 71.833,199.750 71.833 C 200.009 71.833,200.167 71.739,200.167 71.583 C 200.167 71.428,200.324 71.333,200.583 71.333 C 200.813 71.333,201.000 71.258,201.000 71.167 C 201.000 71.075,201.188 71.000,201.417 71.000 C 201.646 71.000,201.833 70.925,201.833 70.833 C 201.833 70.742,201.986 70.667,202.172 70.667 C 202.358 70.667,202.554 70.554,202.606 70.417 C 202.659 70.279,202.844 70.167,203.018 70.167 C 203.191 70.167,203.333 70.092,203.333 70.000 C 203.333 69.908,203.512 69.833,203.730 69.833 C 203.948 69.833,204.219 69.721,204.333 69.583 C 204.447 69.446,204.677 69.333,204.844 69.333 C 205.011 69.333,205.193 69.258,205.250 69.167 C 205.307 69.075,205.458 69.000,205.586 69.000 C 206.020 69.000,207.333 68.092,207.333 67.793 C 207.333 67.632,207.277 67.499,207.208 67.498 C 207.140 67.497,206.940 67.197,206.765 66.831 C 206.590 66.466,206.383 66.167,206.307 66.167 C 206.230 66.167,206.167 66.061,206.167 65.931 C 206.167 65.801,205.904 65.425,205.583 65.095 C 205.262 64.764,205.000 64.424,205.000 64.338 C 205.000 64.252,204.813 63.994,204.583 63.765 C 204.354 63.536,204.167 63.302,204.167 63.246 C 204.167 63.076,203.704 62.667,203.512 62.667 C 203.414 62.667,203.333 62.588,203.333 62.492 C 203.333 62.265,201.735 60.667,201.508 60.667 C 201.412 60.667,201.333 60.586,201.333 60.488 C 201.333 60.294,200.923 59.833,200.750 59.833 C 200.691 59.833,200.538 59.740,200.411 59.625 C 199.880 59.149,199.674 59.000,199.547 59.000 C 199.473 59.000,199.272 58.813,199.100 58.583 C 198.927 58.354,198.647 58.167,198.477 58.167 C 198.306 58.167,198.167 58.108,198.167 58.036 C 198.167 57.964,197.923 57.763,197.625 57.590 C 197.327 57.417,197.046 57.228,197.000 57.171 C 196.954 57.113,196.654 56.935,196.333 56.776 C 196.012 56.616,195.525 56.344,195.250 56.171 C 194.975 55.999,194.619 55.852,194.458 55.846 C 194.298 55.839,194.167 55.762,194.167 55.674 C 194.167 55.587,193.904 55.466,193.583 55.406 C 193.262 55.345,193.000 55.230,193.000 55.148 C 193.000 55.067,192.813 55.000,192.583 55.000 C 192.354 55.000,192.167 54.925,192.167 54.833 C 192.167 54.742,191.912 54.667,191.601 54.667 C 191.252 54.667,190.999 54.571,190.940 54.417 C 190.880 54.260,190.625 54.167,190.255 54.167 C 189.932 54.167,189.667 54.092,189.667 54.000 C 189.667 53.908,189.335 53.833,188.931 53.833 C 188.516 53.833,188.166 53.748,188.129 53.638 C 188.092 53.526,187.603 53.411,186.990 53.370 C 186.400 53.330,185.845 53.230,185.758 53.149 C 185.553 52.956,175.382 52.954,175.262 53.146 M121.375 85.792 L 121.417 117.750 130.375 117.793 L 139.333 117.836 139.333 85.835 L 139.333 53.833 130.333 53.833 L 121.332 53.833 121.375 85.792 M349.374 62.542 L 349.417 71.250 361.975 71.293 L 374.533 71.335 374.016 71.818 C 373.732 72.083,373.500 72.383,373.500 72.484 C 373.500 72.584,373.387 72.667,373.250 72.667 C 373.113 72.667,373.000 72.723,373.000 72.792 C 373.000 72.899,372.738 73.248,372.003 74.118 C 371.910 74.229,371.833 74.397,371.833 74.493 C 371.833 74.589,371.755 74.667,371.659 74.667 C 371.433 74.667,370.667 75.433,370.667 75.659 C 370.667 75.755,370.586 75.833,370.488 75.833 C 370.271 75.833,369.833 76.252,369.833 76.460 C 369.833 76.543,369.646 76.711,369.417 76.833 C 369.188 76.956,369.000 77.119,369.000 77.195 C 369.000 77.271,368.719 77.620,368.375 77.971 C 367.602 78.761,367.000 79.472,367.000 79.597 C 367.000 79.759,366.532 80.167,366.345 80.167 C 366.247 80.167,366.167 80.238,366.167 80.325 C 366.167 80.412,365.567 81.082,364.833 81.813 C 364.100 82.545,363.500 83.177,363.500 83.220 C 363.500 83.320,362.457 84.490,361.458 85.509 C 361.023 85.954,360.667 86.396,360.667 86.492 C 360.667 86.588,360.586 86.667,360.488 86.667 C 360.302 86.667,359.833 87.074,359.833 87.236 C 359.833 87.287,359.477 87.700,359.042 88.154 C 358.015 89.224,357.833 89.449,357.833 89.660 C 357.833 89.755,357.753 89.833,357.655 89.833 C 357.461 89.833,357.000 90.244,357.000 90.417 C 357.000 90.590,356.539 91.000,356.345 91.000 C 356.247 91.000,356.167 91.063,356.167 91.140 C 356.167 91.217,355.642 91.813,355.000 92.465 C 354.358 93.117,353.833 93.691,353.833 93.741 C 353.833 93.885,353.171 94.627,351.875 95.933 C 351.210 96.603,350.667 97.229,350.667 97.325 C 350.667 97.421,350.582 97.500,350.478 97.500 C 350.280 97.500,350.076 97.711,349.250 98.770 C 348.975 99.123,348.543 99.617,348.290 99.868 L 347.830 100.325 347.874 109.204 L 347.917 118.083 372.583 118.083 L 397.250 118.083 397.293 109.375 L 397.336 100.667 383.257 100.667 C 370.810 100.667,369.188 100.638,369.273 100.417 C 369.326 100.279,369.441 100.167,369.530 100.167 C 369.691 100.167,370.167 99.756,370.167 99.617 C 370.167 99.576,370.523 99.170,370.958 98.715 C 371.394 98.260,372.012 97.567,372.333 97.175 C 373.337 95.949,373.451 95.833,373.645 95.833 C 373.748 95.833,373.833 95.760,373.833 95.669 C 373.833 95.579,374.377 94.953,375.042 94.279 C 376.517 92.781,377.321 91.819,377.328 91.542 C 377.331 91.427,377.412 91.333,377.508 91.333 C 377.735 91.333,379.333 89.735,379.333 89.508 C 379.333 89.412,379.414 89.333,379.512 89.333 C 379.699 89.333,380.167 88.925,380.167 88.762 C 380.167 88.710,380.448 88.380,380.792 88.029 C 381.686 87.115,382.167 86.523,382.167 86.332 C 382.167 86.241,382.247 86.167,382.345 86.167 C 382.539 86.167,383.000 85.756,383.000 85.583 C 383.000 85.410,383.461 85.000,383.655 85.000 C 383.753 85.000,383.833 84.933,383.833 84.852 C 383.833 84.770,384.227 84.301,384.708 83.809 C 385.190 83.318,385.846 82.579,386.167 82.168 C 386.488 81.756,387.331 80.844,388.042 80.140 C 388.752 79.435,389.333 78.791,389.333 78.708 C 389.333 78.625,389.521 78.456,389.750 78.333 C 389.979 78.211,390.167 78.049,390.167 77.973 C 390.167 77.847,390.621 77.262,391.125 76.740 C 391.240 76.621,391.333 76.443,391.333 76.345 C 391.333 76.247,391.414 76.167,391.512 76.167 C 391.743 76.167,392.167 75.743,392.167 75.512 C 392.167 75.414,392.252 75.333,392.356 75.333 C 392.555 75.333,393.333 74.505,393.333 74.292 C 393.333 74.223,393.446 74.167,393.583 74.167 C 393.721 74.167,393.833 74.107,393.833 74.033 C 393.833 73.960,394.283 73.416,394.832 72.825 C 395.381 72.234,395.831 71.656,395.832 71.542 C 395.833 71.427,395.908 71.333,396.000 71.333 C 396.109 71.333,396.167 68.306,396.167 62.583 L 396.167 53.833 372.749 53.833 L 349.330 53.833 349.374 62.542 M305.894 69.583 C 305.968 69.777,306.292 69.833,307.328 69.833 C 308.109 69.833,308.667 69.903,308.667 70.000 C 308.667 70.092,308.929 70.167,309.250 70.167 C 309.571 70.167,309.833 70.238,309.833 70.326 C 309.833 70.413,310.096 70.534,310.417 70.594 C 310.737 70.655,311.000 70.770,311.000 70.852 C 311.000 70.933,311.188 71.000,311.417 71.000 C 311.646 71.000,311.833 71.075,311.833 71.167 C 311.833 71.258,312.021 71.333,312.250 71.333 C 312.479 71.333,312.667 71.414,312.667 71.512 C 312.667 71.768,313.101 72.167,313.381 72.167 C 313.513 72.167,313.761 72.354,313.933 72.583 C 314.105 72.813,314.308 73.000,314.385 73.000 C 314.570 73.000,315.000 73.438,315.000 73.627 C 315.000 73.709,315.188 73.877,315.417 74.000 C 315.646 74.123,315.833 74.288,315.833 74.369 C 315.833 74.506,315.977 74.707,316.458 75.244 C 316.573 75.372,316.667 75.557,316.667 75.655 C 316.667 75.753,316.742 75.833,316.833 75.833 C 316.925 75.833,317.000 75.983,317.000 76.167 C 317.000 76.350,317.058 76.500,317.129 76.500 C 317.200 76.500,317.395 76.781,317.564 77.125 C 317.732 77.469,317.937 77.880,318.018 78.039 C 318.100 78.199,318.167 78.445,318.167 78.586 C 318.167 78.728,318.279 78.887,318.417 78.940 C 318.571 78.999,318.667 79.252,318.667 79.601 C 318.667 79.912,318.742 80.167,318.833 80.167 C 318.925 80.167,319.000 80.542,319.000 81.000 C 319.000 81.458,319.064 81.833,319.141 81.833 C 319.219 81.833,319.330 82.672,319.389 83.697 C 319.457 84.877,319.570 85.607,319.698 85.686 C 319.858 85.785,319.857 85.895,319.696 86.197 C 319.584 86.410,319.420 87.333,319.333 88.250 C 319.106 90.627,318.987 91.395,318.816 91.575 C 318.734 91.662,318.667 91.983,318.667 92.289 C 318.667 92.628,318.570 92.881,318.417 92.940 C 318.279 92.992,318.167 93.215,318.167 93.434 C 318.167 93.654,318.092 93.833,318.000 93.833 C 317.908 93.833,317.833 94.021,317.833 94.250 C 317.833 94.479,317.760 94.667,317.670 94.667 C 317.580 94.667,317.459 94.854,317.402 95.083 C 317.344 95.313,317.244 95.500,317.180 95.500 C 317.115 95.500,316.959 95.763,316.833 96.083 C 316.707 96.404,316.514 96.667,316.405 96.667 C 316.295 96.667,316.088 96.910,315.946 97.208 C 315.804 97.506,315.533 97.860,315.344 97.995 C 315.155 98.130,315.000 98.320,315.000 98.418 C 315.000 98.515,314.756 98.737,314.458 98.911 C 314.160 99.084,313.795 99.363,313.647 99.530 C 313.499 99.697,313.293 99.833,313.189 99.833 C 313.085 99.833,313.000 99.908,313.000 100.000 C 313.000 100.092,312.848 100.167,312.661 100.167 C 312.475 100.167,312.280 100.279,312.227 100.417 C 312.174 100.554,311.989 100.667,311.816 100.667 C 311.642 100.667,311.500 100.742,311.500 100.833 C 311.500 100.925,311.313 101.000,311.083 101.000 C 310.854 101.000,310.667 101.075,310.667 101.167 C 310.667 101.258,310.485 101.333,310.262 101.333 C 310.039 101.333,309.745 101.446,309.607 101.583 C 309.468 101.722,309.061 101.833,308.688 101.833 C 308.321 101.833,307.973 101.908,307.917 102.000 C 307.855 102.100,306.696 102.167,305.000 102.167 C 303.304 102.167,302.145 102.100,302.083 102.000 C 302.027 101.908,301.679 101.833,301.312 101.833 C 300.939 101.833,300.532 101.722,300.393 101.583 C 300.255 101.446,299.961 101.333,299.738 101.333 C 299.515 101.333,299.333 101.258,299.333 101.167 C 299.333 101.075,299.146 101.000,298.917 101.000 C 298.688 101.000,298.500 100.925,298.500 100.833 C 298.500 100.742,298.358 100.667,298.184 100.667 C 298.011 100.667,297.826 100.554,297.773 100.417 C 297.720 100.279,297.525 100.167,297.339 100.167 C 297.152 100.167,297.000 100.092,297.000 100.000 C 297.000 99.908,296.915 99.833,296.811 99.833 C 296.707 99.833,296.501 99.697,296.353 99.530 C 296.205 99.363,295.840 99.084,295.542 98.911 C 295.244 98.737,295.000 98.515,295.000 98.418 C 295.000 98.320,294.845 98.130,294.656 97.995 C 294.467 97.860,294.196 97.506,294.054 97.208 C 293.912 96.910,293.705 96.667,293.595 96.667 C 293.486 96.667,293.293 96.404,293.167 96.083 C 293.041 95.763,292.885 95.500,292.820 95.500 C 292.756 95.500,292.656 95.313,292.598 95.083 C 292.541 94.854,292.420 94.667,292.330 94.667 C 292.240 94.667,292.167 94.479,292.167 94.250 C 292.167 94.021,292.092 93.833,292.000 93.833 C 291.908 93.833,291.833 93.654,291.833 93.434 C 291.833 93.215,291.721 92.992,291.583 92.940 C 291.430 92.881,291.333 92.628,291.333 92.289 C 291.333 91.983,291.266 91.662,291.184 91.575 C 291.013 91.395,290.894 90.627,290.667 88.250 C 290.580 87.333,290.416 86.410,290.304 86.197 C 290.143 85.895,290.142 85.785,290.302 85.686 C 290.430 85.607,290.543 84.877,290.611 83.697 C 290.670 82.672,290.781 81.833,290.859 81.833 C 290.936 81.833,291.000 81.458,291.000 81.000 C 291.000 80.542,291.075 80.167,291.167 80.167 C 291.258 80.167,291.333 79.912,291.333 79.601 C 291.333 79.252,291.429 78.999,291.583 78.940 C 291.721 78.887,291.833 78.728,291.833 78.586 C 291.833 78.445,291.900 78.199,291.982 78.039 C 292.063 77.880,292.268 77.469,292.436 77.125 C 292.605 76.781,292.800 76.500,292.871 76.500 C 292.942 76.500,293.000 76.350,293.000 76.167 C 293.000 75.983,293.075 75.833,293.167 75.833 C 293.258 75.833,293.333 75.753,293.333 75.655 C 293.333 75.557,293.427 75.372,293.542 75.244 C 294.023 74.707,294.167 74.506,294.167 74.369 C 294.167 74.288,294.354 74.123,294.583 74.000 C 294.813 73.877,295.000 73.709,295.000 73.627 C 295.000 73.438,295.430 73.000,295.615 73.000 C 295.692 73.000,295.895 72.813,296.067 72.583 C 296.239 72.354,296.487 72.167,296.619 72.167 C 296.899 72.167,297.333 71.768,297.333 71.512 C 297.333 71.414,297.521 71.333,297.750 71.333 C 297.979 71.333,298.167 71.258,298.167 71.167 C 298.167 71.075,298.354 71.000,298.583 71.000 C 298.813 71.000,299.000 70.933,299.000 70.852 C 299.000 70.770,299.262 70.655,299.583 70.594 C 299.904 70.534,300.167 70.413,300.167 70.326 C 300.167 70.238,300.429 70.167,300.750 70.167 C 301.071 70.167,301.333 70.092,301.333 70.000 C 301.333 69.903,301.891 69.833,302.672 69.833 C 303.708 69.833,304.032 69.777,304.106 69.583 C 304.173 69.409,304.445 69.333,305.000 69.333 C 305.555 69.333,305.827 69.409,305.894 69.583 " stroke="none" fill="#4e5c72" fill-rule="evenodd"></path><path id="path3" d="M46.833 23.999 C 46.696 24.088,45.332 24.163,43.804 24.164 C 41.557 24.166,40.976 24.215,40.774 24.417 C 40.599 24.591,40.172 24.667,39.355 24.667 C 38.712 24.667,38.140 24.742,38.083 24.833 C 38.027 24.925,37.614 25.000,37.167 25.000 C 36.719 25.000,36.307 25.075,36.250 25.167 C 36.193 25.258,35.894 25.333,35.585 25.333 C 35.277 25.333,34.911 25.446,34.774 25.583 C 34.635 25.722,34.227 25.833,33.855 25.833 C 33.487 25.833,33.140 25.908,33.083 26.000 C 33.027 26.092,32.803 26.167,32.585 26.167 C 32.368 26.167,32.078 26.279,31.940 26.417 C 31.803 26.554,31.460 26.667,31.179 26.667 C 30.897 26.667,30.667 26.742,30.667 26.833 C 30.667 26.925,30.479 27.000,30.250 27.000 C 30.021 27.000,29.833 27.072,29.833 27.159 C 29.833 27.247,29.571 27.367,29.250 27.428 C 28.929 27.488,28.667 27.604,28.667 27.685 C 28.667 27.767,28.479 27.833,28.250 27.833 C 28.021 27.833,27.833 27.908,27.833 28.000 C 27.833 28.092,27.681 28.167,27.495 28.167 C 27.309 28.167,27.113 28.279,27.060 28.417 C 27.008 28.554,26.785 28.667,26.566 28.667 C 26.346 28.667,26.167 28.742,26.167 28.833 C 26.167 28.925,26.017 29.000,25.833 29.000 C 25.650 29.000,25.500 29.075,25.500 29.167 C 25.500 29.258,25.393 29.333,25.262 29.333 C 25.131 29.333,24.925 29.427,24.804 29.542 C 24.682 29.656,24.358 29.862,24.083 30.000 C 23.808 30.137,23.523 30.343,23.450 30.458 C 23.377 30.573,23.170 30.667,22.992 30.667 C 22.813 30.667,22.667 30.742,22.667 30.833 C 22.667 30.925,22.589 31.000,22.493 31.000 C 22.329 31.000,22.141 31.130,21.589 31.625 C 21.462 31.740,21.309 31.833,21.250 31.833 C 21.191 31.833,21.038 31.927,20.911 32.042 C 20.410 32.490,20.177 32.667,20.083 32.667 C 20.029 32.667,19.797 32.854,19.568 33.083 C 19.339 33.313,19.093 33.500,19.021 33.500 C 18.950 33.500,18.523 33.837,18.074 34.250 C 17.625 34.662,17.212 35.000,17.157 35.000 C 17.102 35.000,16.956 35.188,16.833 35.417 C 16.711 35.646,16.543 35.833,16.460 35.833 C 16.252 35.833,15.833 36.271,15.833 36.488 C 15.833 36.586,15.748 36.667,15.644 36.667 C 15.445 36.667,14.667 37.495,14.667 37.708 C 14.667 37.777,14.586 37.833,14.488 37.833 C 14.302 37.833,13.833 38.241,13.833 38.402 C 13.833 38.452,13.571 38.764,13.250 39.095 C 12.929 39.425,12.667 39.765,12.667 39.851 C 12.667 39.936,12.404 40.261,12.083 40.572 C 11.763 40.884,11.500 41.217,11.500 41.312 C 11.500 41.407,11.312 41.672,11.083 41.902 C 10.854 42.131,10.667 42.397,10.667 42.492 C 10.667 42.588,10.593 42.667,10.503 42.667 C 10.413 42.667,10.293 42.854,10.235 43.083 C 10.178 43.313,10.075 43.500,10.008 43.500 C 9.941 43.500,9.744 43.762,9.572 44.083 C 9.399 44.404,9.200 44.667,9.129 44.667 C 9.058 44.667,9.000 44.820,9.000 45.007 C 9.000 45.195,8.812 45.550,8.583 45.797 C 8.354 46.044,8.167 46.341,8.167 46.457 C 8.167 46.572,8.092 46.667,8.000 46.667 C 7.908 46.667,7.833 46.854,7.833 47.083 C 7.833 47.313,7.775 47.500,7.705 47.500 C 7.634 47.500,7.438 47.781,7.269 48.125 C 7.101 48.469,6.896 48.880,6.815 49.039 C 6.733 49.199,6.667 49.433,6.667 49.561 C 6.667 49.688,6.554 49.886,6.417 50.000 C 6.279 50.114,6.167 50.386,6.167 50.604 C 6.167 50.822,6.092 51.000,6.000 51.000 C 5.908 51.000,5.833 51.188,5.833 51.417 C 5.833 51.646,5.762 51.833,5.674 51.833 C 5.587 51.833,5.466 52.096,5.406 52.417 C 5.345 52.737,5.230 53.000,5.148 53.000 C 5.067 53.000,5.000 53.262,5.000 53.583 C 5.000 53.904,4.925 54.167,4.833 54.167 C 4.742 54.167,4.667 54.421,4.667 54.732 C 4.667 55.081,4.571 55.334,4.417 55.394 C 4.260 55.454,4.167 55.709,4.167 56.078 C 4.167 56.402,4.092 56.667,4.000 56.667 C 3.908 56.667,3.831 56.985,3.828 57.375 C 3.825 57.765,3.713 58.229,3.578 58.407 C 3.443 58.585,3.333 58.974,3.333 59.272 C 3.333 59.570,3.258 59.860,3.167 59.917 C 3.075 59.973,3.000 60.507,3.000 61.103 C 3.000 61.783,2.938 62.148,2.833 62.083 C 2.727 62.018,2.667 62.529,2.667 63.500 C 2.667 64.352,2.601 64.979,2.517 64.927 C 2.063 64.646,1.963 77.606,2.417 78.060 C 2.595 78.237,2.667 78.671,2.667 79.562 C 2.667 80.250,2.742 80.860,2.833 80.917 C 2.925 80.973,3.000 81.461,3.000 82.000 C 3.000 82.539,3.075 83.027,3.167 83.083 C 3.258 83.140,3.334 83.426,3.334 83.718 C 3.335 84.011,3.447 84.465,3.584 84.727 C 3.721 84.990,3.833 85.454,3.833 85.759 C 3.833 86.064,3.908 86.360,4.000 86.417 C 4.092 86.473,4.167 86.780,4.167 87.098 C 4.167 87.459,4.261 87.713,4.417 87.773 C 4.571 87.832,4.667 88.086,4.667 88.434 C 4.667 88.746,4.742 89.000,4.833 89.000 C 4.925 89.000,5.000 89.189,5.000 89.419 C 5.000 89.838,5.033 89.930,5.555 90.972 C 5.708 91.277,5.833 91.671,5.833 91.847 C 5.833 92.023,5.908 92.167,6.000 92.167 C 6.092 92.167,6.167 92.346,6.167 92.566 C 6.167 92.785,6.279 93.008,6.417 93.060 C 6.554 93.113,6.667 93.342,6.667 93.568 C 6.667 93.795,6.742 94.027,6.833 94.083 C 6.925 94.140,7.000 94.306,7.000 94.452 C 7.000 94.599,7.188 94.964,7.417 95.265 C 7.646 95.565,7.833 95.892,7.833 95.991 C 7.833 96.249,8.213 96.893,8.458 97.050 C 8.573 97.123,8.667 97.330,8.667 97.508 C 8.667 97.687,8.742 97.833,8.833 97.833 C 8.925 97.833,9.000 97.956,9.000 98.106 C 9.000 98.256,9.187 98.552,9.417 98.765 C 9.646 98.977,9.836 99.248,9.839 99.367 C 9.845 99.644,10.239 100.167,10.441 100.167 C 10.526 100.167,10.607 100.315,10.621 100.497 C 10.634 100.679,10.838 101.020,11.073 101.255 C 11.308 101.490,11.500 101.774,11.500 101.887 C 11.500 102.001,11.650 102.201,11.833 102.333 C 12.017 102.465,12.167 102.670,12.167 102.787 C 12.167 102.904,12.247 103.000,12.345 103.000 C 12.564 103.000,13.014 103.430,12.907 103.537 C 12.865 103.579,13.056 103.850,13.332 104.139 C 13.608 104.427,13.833 104.707,13.833 104.760 C 13.833 104.925,14.300 105.333,14.488 105.333 C 14.586 105.333,14.667 105.405,14.667 105.492 C 14.667 105.699,16.301 107.333,16.508 107.333 C 16.595 107.333,16.667 107.414,16.667 107.512 C 16.667 107.740,17.099 108.141,18.900 109.583 C 19.243 109.858,19.725 110.253,19.970 110.459 C 20.216 110.666,20.548 110.877,20.708 110.929 C 20.869 110.980,21.000 111.092,21.000 111.178 C 21.000 111.263,21.104 111.333,21.232 111.333 C 21.360 111.333,21.508 111.446,21.560 111.583 C 21.613 111.721,21.771 111.833,21.911 111.833 C 22.052 111.833,22.167 111.908,22.167 112.000 C 22.167 112.092,22.279 112.167,22.417 112.167 C 22.554 112.167,22.667 112.240,22.667 112.330 C 22.667 112.420,22.854 112.541,23.083 112.598 C 23.313 112.656,23.500 112.770,23.500 112.851 C 23.500 112.933,23.650 113.000,23.833 113.000 C 24.017 113.000,24.167 113.075,24.167 113.167 C 24.167 113.258,24.271 113.333,24.399 113.333 C 24.527 113.333,24.674 113.446,24.727 113.583 C 24.780 113.721,24.975 113.833,25.161 113.833 C 25.348 113.833,25.500 113.908,25.500 114.000 C 25.500 114.092,25.644 114.167,25.819 114.167 C 25.995 114.167,26.164 114.223,26.194 114.292 C 26.275 114.473,27.319 115.000,27.597 115.000 C 27.727 115.000,27.833 115.075,27.833 115.167 C 27.833 115.258,28.012 115.333,28.230 115.333 C 28.448 115.333,28.719 115.446,28.833 115.583 C 28.947 115.721,29.219 115.833,29.437 115.833 C 29.655 115.833,29.833 115.908,29.833 116.000 C 29.833 116.092,30.021 116.167,30.250 116.167 C 30.479 116.167,30.667 116.227,30.667 116.302 C 30.667 116.376,31.135 116.569,31.708 116.729 C 32.281 116.890,32.880 117.092,33.039 117.178 C 33.199 117.263,33.630 117.333,33.998 117.333 C 34.481 117.333,34.667 117.403,34.667 117.583 C 34.667 117.768,34.860 117.833,35.407 117.833 C 35.814 117.833,36.193 117.908,36.250 118.000 C 36.307 118.092,36.755 118.167,37.246 118.167 C 37.755 118.167,38.166 118.247,38.201 118.353 C 38.235 118.455,38.785 118.576,39.423 118.621 C 40.061 118.666,40.655 118.770,40.742 118.852 C 40.829 118.933,42.197 119.000,43.783 119.000 C 45.594 119.000,46.667 119.062,46.667 119.167 C 46.667 119.258,46.850 119.333,47.073 119.333 C 47.297 119.333,47.527 119.258,47.583 119.167 C 47.645 119.067,48.776 119.000,50.417 119.000 C 52.057 119.000,53.188 118.933,53.250 118.833 C 53.307 118.742,53.817 118.666,54.385 118.666 C 54.974 118.665,55.621 118.558,55.894 118.416 C 56.157 118.279,56.733 118.167,57.176 118.167 C 57.618 118.167,58.027 118.092,58.083 118.000 C 58.140 117.908,58.439 117.833,58.748 117.833 C 59.057 117.833,59.422 117.721,59.560 117.583 C 59.697 117.446,60.035 117.333,60.312 117.333 C 60.588 117.333,60.860 117.258,60.917 117.167 C 60.973 117.075,61.278 117.000,61.593 117.000 C 61.909 117.000,62.167 116.925,62.167 116.833 C 62.167 116.742,62.349 116.667,62.571 116.667 C 62.794 116.667,63.089 116.554,63.226 116.417 C 63.364 116.279,63.665 116.167,63.895 116.167 C 64.125 116.167,64.360 116.092,64.417 116.000 C 64.473 115.908,64.703 115.833,64.927 115.833 C 65.177 115.833,65.333 115.737,65.333 115.583 C 65.333 115.444,65.482 115.333,65.669 115.333 C 65.854 115.333,66.135 115.266,66.294 115.183 C 66.453 115.100,67.200 114.744,67.954 114.391 C 68.708 114.039,69.327 113.656,69.329 113.542 C 69.331 113.427,69.521 113.333,69.750 113.333 C 69.979 113.333,70.167 113.258,70.167 113.167 C 70.167 113.075,70.306 113.000,70.477 113.000 C 70.647 113.000,70.927 112.812,71.100 112.583 C 71.272 112.354,71.564 112.167,71.750 112.167 C 71.936 112.167,72.228 111.979,72.400 111.750 C 72.573 111.521,72.853 111.333,73.023 111.333 C 73.194 111.333,73.334 111.277,73.334 111.208 C 73.334 111.140,73.554 110.936,73.822 110.757 C 74.090 110.577,74.265 110.352,74.211 110.257 C 74.157 110.161,74.173 110.138,74.247 110.204 C 74.426 110.366,75.333 109.818,75.333 109.547 C 75.333 109.430,75.446 109.333,75.583 109.333 C 75.721 109.333,75.834 109.277,75.834 109.208 C 75.835 109.140,76.102 108.902,76.427 108.681 C 76.978 108.305,80.167 105.230,80.167 105.074 C 80.167 105.002,80.733 104.312,81.125 103.906 C 81.240 103.788,81.333 103.610,81.333 103.512 C 81.333 103.414,81.427 103.331,81.542 103.329 C 81.656 103.326,82.050 102.876,82.416 102.329 C 82.782 101.781,83.138 101.333,83.207 101.333 C 83.277 101.333,83.333 101.194,83.333 101.023 C 83.333 100.853,83.521 100.573,83.750 100.400 C 83.979 100.228,84.167 99.959,84.167 99.802 C 84.167 99.646,84.354 99.315,84.583 99.068 C 84.813 98.820,85.000 98.516,85.000 98.392 C 85.000 98.268,85.075 98.167,85.167 98.167 C 85.258 98.167,85.333 97.979,85.333 97.750 C 85.333 97.521,85.408 97.333,85.500 97.333 C 85.805 97.333,85.672 96.803,85.345 96.718 C 85.168 96.672,84.983 96.529,84.933 96.400 C 84.884 96.272,84.691 96.167,84.505 96.167 C 84.319 96.167,84.167 96.092,84.167 96.000 C 84.167 95.908,83.979 95.833,83.750 95.833 C 83.521 95.833,83.333 95.760,83.333 95.670 C 83.333 95.580,83.146 95.459,82.917 95.402 C 82.688 95.344,82.500 95.230,82.500 95.149 C 82.500 95.067,82.354 95.000,82.177 95.000 C 81.999 95.000,81.807 94.925,81.750 94.833 C 81.693 94.742,81.509 94.667,81.341 94.667 C 81.173 94.667,80.992 94.554,80.940 94.417 C 80.887 94.279,80.696 94.167,80.515 94.167 C 80.334 94.167,80.140 94.092,80.083 94.000 C 80.027 93.908,79.835 93.833,79.657 93.833 C 79.479 93.833,79.333 93.760,79.333 93.670 C 79.333 93.580,79.146 93.459,78.917 93.402 C 78.688 93.344,78.500 93.230,78.500 93.149 C 78.500 93.067,78.354 93.000,78.177 93.000 C 77.999 93.000,77.807 92.925,77.750 92.833 C 77.693 92.742,77.509 92.667,77.341 92.667 C 77.173 92.667,76.992 92.554,76.940 92.417 C 76.887 92.279,76.696 92.167,76.515 92.167 C 76.334 92.167,76.140 92.092,76.083 92.000 C 76.027 91.908,75.835 91.833,75.657 91.833 C 75.479 91.833,75.333 91.760,75.333 91.670 C 75.333 91.580,75.146 91.459,74.917 91.402 C 74.688 91.344,74.500 91.230,74.500 91.149 C 74.500 91.067,74.354 91.000,74.177 91.000 C 73.999 91.000,73.807 90.925,73.750 90.833 C 73.693 90.742,73.509 90.667,73.341 90.667 C 73.173 90.667,72.992 90.554,72.940 90.417 C 72.887 90.279,72.696 90.167,72.515 90.167 C 72.334 90.167,72.140 90.092,72.083 90.000 C 72.027 89.908,71.835 89.833,71.657 89.833 C 71.479 89.833,71.333 89.760,71.333 89.670 C 71.333 89.580,71.146 89.459,70.917 89.402 C 70.688 89.344,70.500 89.230,70.500 89.149 C 70.500 89.067,70.319 89.000,70.097 89.000 C 69.876 89.000,69.663 88.906,69.624 88.792 C 69.501 88.424,68.667 88.993,68.667 89.445 C 68.667 89.659,68.573 89.835,68.458 89.838 C 68.344 89.840,67.950 90.290,67.584 90.838 C 67.218 91.385,66.862 91.833,66.793 91.833 C 66.723 91.833,66.667 91.908,66.667 91.999 C 66.667 92.163,64.255 94.667,64.096 94.667 C 64.050 94.667,63.666 95.004,63.241 95.417 C 62.817 95.829,62.413 96.167,62.344 96.167 C 62.275 96.167,62.001 96.354,61.734 96.583 C 61.468 96.812,61.119 97.000,60.958 97.000 C 60.798 97.000,60.667 97.063,60.667 97.139 C 60.667 97.216,60.219 97.497,59.671 97.764 C 59.124 98.031,58.674 98.344,58.671 98.458 C 58.668 98.584,58.436 98.667,58.083 98.667 C 57.762 98.667,57.500 98.742,57.500 98.833 C 57.500 98.925,57.317 99.000,57.093 99.000 C 56.869 99.000,56.645 99.066,56.595 99.148 C 56.545 99.229,56.240 99.345,55.919 99.405 C 55.597 99.466,55.333 99.587,55.333 99.674 C 55.333 99.762,55.038 99.833,54.677 99.833 C 54.315 99.833,53.973 99.908,53.917 100.000 C 53.860 100.092,53.495 100.167,53.105 100.167 C 52.716 100.167,52.251 100.277,52.074 100.411 C 51.843 100.586,51.293 100.658,50.158 100.661 C 49.248 100.664,48.490 100.744,48.387 100.847 C 48.270 100.964,47.718 100.992,46.812 100.927 C 46.044 100.872,44.712 100.786,43.851 100.735 C 42.822 100.674,42.204 100.561,42.048 100.405 C 41.906 100.263,41.478 100.167,40.988 100.167 C 40.536 100.167,40.167 100.092,40.167 100.000 C 40.167 99.908,39.787 99.833,39.323 99.833 C 38.860 99.833,38.521 99.767,38.572 99.685 C 38.664 99.536,37.246 99.000,36.760 99.000 C 36.617 99.000,36.500 98.925,36.500 98.833 C 36.500 98.742,36.313 98.667,36.083 98.667 C 35.854 98.667,35.667 98.593,35.667 98.503 C 35.667 98.413,35.479 98.293,35.250 98.235 C 35.021 98.178,34.833 98.064,34.833 97.982 C 34.833 97.900,34.683 97.833,34.500 97.833 C 34.317 97.833,34.167 97.760,34.167 97.670 C 34.167 97.580,33.979 97.459,33.750 97.402 C 33.521 97.344,33.333 97.235,33.333 97.159 C 33.333 97.084,33.071 96.927,32.750 96.811 C 32.429 96.695,32.167 96.502,32.167 96.383 C 32.167 96.264,32.054 96.167,31.917 96.167 C 31.779 96.167,31.667 96.092,31.667 96.000 C 31.667 95.908,31.566 95.833,31.444 95.833 C 31.142 95.833,27.000 91.749,27.000 91.451 C 27.000 91.320,26.822 91.080,26.605 90.917 C 26.388 90.754,26.112 90.369,25.991 90.060 C 25.870 89.752,25.673 89.500,25.552 89.500 C 25.430 89.500,25.333 89.316,25.333 89.083 C 25.333 88.854,25.258 88.667,25.167 88.667 C 25.075 88.667,25.000 88.554,25.000 88.417 C 25.000 88.279,24.925 88.167,24.833 88.167 C 24.742 88.167,24.667 88.052,24.667 87.911 C 24.667 87.771,24.554 87.613,24.417 87.560 C 24.279 87.508,24.167 87.285,24.167 87.066 C 24.167 86.846,24.092 86.667,24.000 86.667 C 23.908 86.667,23.833 86.488,23.833 86.270 C 23.833 86.052,23.721 85.781,23.583 85.667 C 23.446 85.553,23.333 85.281,23.333 85.063 C 23.333 84.845,23.258 84.667,23.167 84.667 C 23.075 84.667,23.000 84.550,23.000 84.406 C 23.000 84.018,22.482 82.509,22.313 82.404 C 22.233 82.354,22.167 82.060,22.167 81.750 C 22.167 81.440,22.092 81.140,22.000 81.083 C 21.908 81.027,21.833 80.682,21.833 80.318 C 21.833 79.884,21.747 79.623,21.583 79.560 C 21.400 79.490,21.333 79.200,21.333 78.471 C 21.333 77.925,21.261 77.344,21.173 77.179 C 21.085 77.015,21.003 75.914,20.990 74.732 C 20.978 73.550,20.892 72.491,20.800 72.379 C 20.703 72.261,20.678 71.838,20.741 71.379 C 20.801 70.941,20.889 69.571,20.937 68.333 C 20.985 67.096,21.093 66.012,21.179 65.925 C 21.264 65.838,21.333 65.326,21.333 64.788 C 21.333 64.140,21.418 63.725,21.583 63.560 C 21.721 63.422,21.833 63.057,21.833 62.748 C 21.833 62.439,21.908 62.140,22.000 62.083 C 22.092 62.027,22.167 61.679,22.167 61.312 C 22.167 60.939,22.278 60.532,22.417 60.393 C 22.554 60.255,22.667 59.961,22.667 59.738 C 22.667 59.515,22.742 59.333,22.833 59.333 C 22.925 59.333,23.000 59.071,23.000 58.750 C 23.000 58.429,23.075 58.167,23.167 58.167 C 23.258 58.167,23.333 57.979,23.333 57.750 C 23.333 57.491,23.428 57.333,23.583 57.333 C 23.739 57.333,23.833 57.176,23.833 56.917 C 23.833 56.688,23.908 56.500,24.000 56.500 C 24.092 56.500,24.167 56.350,24.167 56.167 C 24.167 55.983,24.234 55.833,24.315 55.833 C 24.397 55.833,24.511 55.646,24.568 55.417 C 24.626 55.188,24.747 55.000,24.837 55.000 C 24.926 55.000,25.000 54.876,25.000 54.724 C 25.000 54.572,25.188 54.202,25.417 53.902 C 25.646 53.601,25.833 53.276,25.833 53.178 C 25.833 53.080,25.908 53.000,26.000 53.000 C 26.092 53.000,26.167 52.922,26.167 52.826 C 26.167 52.730,26.354 52.450,26.583 52.203 C 26.813 51.956,27.000 51.697,27.000 51.627 C 27.000 51.437,30.640 47.833,30.833 47.833 C 30.925 47.833,31.000 47.721,31.000 47.583 C 31.000 47.444,31.148 47.333,31.333 47.333 C 31.517 47.333,31.667 47.258,31.667 47.167 C 31.667 47.075,31.752 47.000,31.856 47.000 C 31.960 47.000,32.219 46.813,32.431 46.583 C 32.644 46.354,32.933 46.167,33.075 46.167 C 33.217 46.167,33.333 46.092,33.333 46.000 C 33.333 45.908,33.486 45.833,33.672 45.833 C 33.858 45.833,34.054 45.721,34.106 45.583 C 34.159 45.446,34.267 45.333,34.346 45.333 C 34.554 45.333,36.401 44.478,36.500 44.336 C 36.579 44.222,37.025 44.092,38.036 43.888 C 38.285 43.838,38.576 43.693,38.682 43.565 C 38.788 43.438,39.165 43.333,39.520 43.333 C 39.876 43.333,40.167 43.258,40.167 43.167 C 40.167 43.075,40.509 43.000,40.928 43.000 C 41.346 43.000,41.815 42.934,41.969 42.854 C 42.124 42.774,42.962 42.658,43.831 42.598 C 44.701 42.537,45.485 42.415,45.573 42.327 C 45.785 42.115,48.053 42.120,48.266 42.333 C 48.358 42.424,49.238 42.548,50.222 42.609 C 51.207 42.669,52.051 42.781,52.099 42.859 C 52.147 42.937,52.552 43.000,53.000 43.000 C 53.448 43.000,53.860 43.075,53.917 43.167 C 53.973 43.258,54.353 43.333,54.760 43.333 C 55.307 43.333,55.500 43.399,55.500 43.583 C 55.500 43.758,55.676 43.833,56.083 43.833 C 56.404 43.833,56.667 43.908,56.667 44.000 C 56.667 44.092,56.854 44.167,57.083 44.167 C 57.313 44.167,57.500 44.236,57.500 44.320 C 57.500 44.404,57.744 44.526,58.042 44.591 C 58.340 44.656,58.621 44.755,58.667 44.813 C 58.820 45.004,59.493 45.333,59.730 45.333 C 59.859 45.333,60.008 45.446,60.060 45.583 C 60.113 45.721,60.271 45.833,60.411 45.833 C 60.552 45.833,60.667 45.908,60.667 46.000 C 60.667 46.092,60.804 46.167,60.971 46.167 C 61.138 46.167,61.451 46.354,61.667 46.583 C 61.882 46.813,62.155 47.000,62.273 47.000 C 62.391 47.000,62.834 47.337,63.259 47.750 C 63.683 48.163,64.094 48.500,64.171 48.500 C 64.358 48.500,66.167 50.286,66.167 50.470 C 66.167 50.550,66.542 51.006,67.000 51.484 C 67.458 51.962,67.836 52.442,67.839 52.551 C 67.846 52.835,68.253 53.333,68.477 53.333 C 68.581 53.333,68.667 53.521,68.667 53.750 C 68.667 54.133,68.728 54.167,69.417 54.167 C 69.829 54.167,70.167 54.092,70.167 54.000 C 70.167 53.908,70.346 53.833,70.566 53.833 C 70.785 53.833,71.008 53.721,71.060 53.583 C 71.113 53.446,71.259 53.333,71.385 53.333 C 71.667 53.333,74.062 52.141,74.139 51.963 C 74.169 51.892,74.371 51.833,74.587 51.833 C 74.804 51.833,75.024 51.763,75.077 51.677 C 75.203 51.472,76.156 51.000,76.442 51.000 C 76.566 51.000,76.667 50.931,76.667 50.847 C 76.667 50.762,76.892 50.644,77.167 50.583 C 77.442 50.523,77.667 50.404,77.667 50.320 C 77.667 50.236,77.798 50.161,77.958 50.154 C 78.119 50.148,78.475 49.999,78.750 49.823 C 79.025 49.647,79.362 49.459,79.500 49.405 C 79.773 49.297,80.780 48.800,81.476 48.430 C 81.718 48.302,82.179 48.075,82.500 47.927 C 82.821 47.779,83.196 47.593,83.333 47.515 C 83.471 47.436,83.808 47.278,84.083 47.163 C 85.242 46.678,85.667 46.409,85.667 46.162 C 85.667 45.820,85.286 45.003,85.125 45.001 C 85.056 45.001,85.000 44.855,85.000 44.679 C 85.000 44.502,84.813 44.210,84.583 44.030 C 84.354 43.850,84.167 43.576,84.167 43.422 C 84.167 43.108,83.784 42.667,83.512 42.667 C 83.414 42.667,83.333 42.517,83.333 42.334 C 83.333 42.151,83.071 41.722,82.750 41.382 C 82.429 41.042,82.167 40.699,82.167 40.619 C 82.167 40.540,81.960 40.265,81.708 40.010 C 81.456 39.754,81.025 39.264,80.750 38.919 C 80.475 38.575,79.969 37.990,79.625 37.619 C 79.281 37.249,79.000 36.883,79.000 36.806 C 79.000 36.729,78.938 36.667,78.862 36.667 C 78.786 36.667,78.248 36.217,77.667 35.667 C 77.085 35.117,76.510 34.667,76.388 34.667 C 76.266 34.667,76.167 34.586,76.167 34.488 C 76.167 34.296,75.757 33.833,75.588 33.833 C 75.532 33.833,75.283 33.646,75.036 33.417 C 74.789 33.188,74.531 33.000,74.463 33.000 C 74.395 33.000,74.069 32.737,73.739 32.417 C 73.408 32.096,73.045 31.833,72.931 31.833 C 72.818 31.833,72.549 31.646,72.333 31.417 C 72.118 31.188,71.805 31.000,71.638 31.000 C 71.470 31.000,71.333 30.925,71.333 30.833 C 71.333 30.742,71.253 30.667,71.155 30.667 C 71.057 30.667,70.872 30.573,70.744 30.458 C 70.151 29.926,69.991 29.833,69.674 29.833 C 69.486 29.833,69.333 29.777,69.332 29.708 C 69.331 29.541,68.367 29.000,68.070 29.000 C 67.940 29.000,67.833 28.925,67.833 28.833 C 67.833 28.742,67.654 28.667,67.434 28.667 C 67.215 28.667,66.992 28.554,66.940 28.417 C 66.887 28.279,66.691 28.167,66.505 28.167 C 66.319 28.167,66.167 28.092,66.167 28.000 C 66.167 27.908,65.979 27.833,65.750 27.833 C 65.521 27.833,65.333 27.762,65.333 27.674 C 65.333 27.587,65.071 27.466,64.750 27.406 C 64.429 27.345,64.167 27.230,64.167 27.148 C 64.167 27.067,63.979 27.000,63.750 27.000 C 63.521 27.000,63.333 26.925,63.333 26.833 C 63.333 26.742,63.079 26.667,62.768 26.667 C 62.419 26.667,62.166 26.571,62.106 26.417 C 62.051 26.272,61.802 26.167,61.515 26.167 C 61.243 26.167,60.973 26.092,60.917 26.000 C 60.860 25.908,60.476 25.833,60.064 25.833 C 59.651 25.833,59.355 25.767,59.405 25.686 C 59.511 25.514,58.953 25.339,58.292 25.336 C 58.040 25.334,57.833 25.258,57.833 25.167 C 57.833 25.075,57.463 25.000,57.010 25.000 C 56.557 25.000,56.140 24.925,56.083 24.833 C 56.027 24.742,55.475 24.667,54.857 24.667 C 54.180 24.667,53.651 24.584,53.526 24.458 C 53.383 24.315,52.420 24.223,50.451 24.163 C 48.874 24.115,47.471 24.022,47.333 23.956 C 47.196 23.891,46.971 23.910,46.833 23.999 M44.667 62.833 C 44.667 62.925,44.404 63.000,44.083 63.000 C 43.762 63.000,43.500 63.075,43.500 63.167 C 43.500 63.258,43.393 63.333,43.262 63.333 C 43.131 63.333,42.925 63.432,42.804 63.552 C 42.682 63.672,42.340 63.878,42.042 64.009 C 41.744 64.141,41.500 64.342,41.500 64.457 C 41.500 64.572,41.420 64.667,41.321 64.667 C 41.091 64.667,40.667 65.091,40.667 65.321 C 40.667 65.420,40.586 65.500,40.488 65.500 C 40.294 65.500,39.833 65.910,39.833 66.083 C 39.833 66.141,39.646 66.435,39.417 66.735 C 39.188 67.036,39.000 67.406,39.000 67.557 C 39.000 67.709,38.925 67.833,38.833 67.833 C 38.742 67.833,38.667 68.088,38.667 68.399 C 38.667 68.748,38.571 69.001,38.417 69.060 C 38.210 69.140,38.167 69.587,38.167 71.650 C 38.167 73.644,38.217 74.193,38.417 74.393 C 38.554 74.530,38.667 74.769,38.667 74.922 C 38.667 75.325,39.458 76.841,39.841 77.173 C 40.020 77.329,40.167 77.523,40.167 77.605 C 40.167 77.828,41.356 79.000,41.584 79.000 C 41.637 79.000,41.883 79.188,42.131 79.417 C 42.378 79.646,42.674 79.833,42.790 79.833 C 42.905 79.833,43.000 79.908,43.000 80.000 C 43.000 80.092,43.169 80.169,43.375 80.172 C 43.581 80.175,43.896 80.287,44.074 80.422 C 44.251 80.557,44.641 80.667,44.939 80.667 C 45.237 80.667,45.527 80.742,45.583 80.833 C 45.641 80.927,46.443 81.000,47.417 81.000 C 48.390 81.000,49.192 80.927,49.250 80.833 C 49.307 80.742,49.581 80.667,49.859 80.667 C 50.137 80.667,50.564 80.561,50.808 80.432 C 51.051 80.302,51.531 80.074,51.875 79.924 C 52.219 79.774,52.500 79.580,52.500 79.492 C 52.500 79.405,52.612 79.333,52.750 79.333 C 52.887 79.333,53.000 79.258,53.000 79.167 C 53.000 79.075,53.095 79.000,53.210 79.000 C 53.493 79.000,54.793 77.724,54.920 77.321 C 54.977 77.145,55.084 77.000,55.158 77.000 C 55.233 77.000,55.340 76.869,55.395 76.708 C 55.451 76.548,55.642 76.192,55.819 75.917 C 55.997 75.642,56.148 75.217,56.154 74.972 C 56.161 74.728,56.260 74.497,56.375 74.459 C 56.721 74.344,56.770 69.460,56.428 69.119 C 56.284 68.975,56.167 68.627,56.167 68.345 C 56.167 68.064,56.092 67.833,56.000 67.833 C 55.908 67.833,55.833 67.681,55.833 67.495 C 55.833 67.309,55.721 67.113,55.583 67.060 C 55.446 67.008,55.333 66.839,55.333 66.685 C 55.333 66.381,53.780 64.667,53.504 64.667 C 53.410 64.667,53.333 64.581,53.333 64.477 C 53.333 64.221,52.819 63.845,52.458 63.839 C 52.298 63.836,52.167 63.760,52.167 63.670 C 52.167 63.580,51.979 63.459,51.750 63.402 C 51.521 63.344,51.333 63.230,51.333 63.149 C 51.333 63.067,51.071 63.000,50.750 63.000 C 50.429 63.000,50.167 62.925,50.167 62.833 C 50.167 62.729,49.139 62.667,47.417 62.667 C 45.694 62.667,44.667 62.729,44.667 62.833 " stroke="none" fill="#66b3a0" fill-rule="evenodd"></path><path id="path4" d="" stroke="none" fill="#00ffff" fill-rule="evenodd"></path></g></svg>